<?xml version="1.0" standalone="no"?>
<!DOCTYPE svg PUBLIC "-//W3C//DTD SVG 1.1//EN" "http://www.w3.org/Graphics/SVG/1.1/DTD/svg11.dtd" >
<!--
2013-9-30: Created.
-->
<svg>
<metadata>
Created by iconfont
</metadata>
<defs>

<font id="iconfont" horiz-adv-x="1024" >
  <font-face
    font-family="iconfont"
    font-weight="500"
    font-stretch="normal"
    units-per-em="1024"
    ascent="896"
    descent="-128"
  />
    <missing-glyph />
    
    <glyph glyph-name="x" unicode="x" horiz-adv-x="1001"
d="M281 543q-27 -1 -53 -1h-83q-18 0 -36.5 -6t-32.5 -18.5t-23 -32t-9 -45.5v-76h912v41q0 16 -0.5 30t-0.5 18q0 13 -5 29t-17 29.5t-31.5 22.5t-49.5 9h-133v-97h-438v97zM955 310v-52q0 -23 0.5 -52t0.5 -58t-10.5 -47.5t-26 -30t-33 -16t-31.5 -4.5q-14 -1 -29.5 -0.5
t-29.5 0.5h-32l-45 128h-439l-44 -128h-29h-34q-20 0 -45 1q-25 0 -41 9.5t-25.5 23t-13.5 29.5t-4 30v167h911zM163 247q-12 0 -21 -8.5t-9 -21.5t9 -21.5t21 -8.5q13 0 22 8.5t9 21.5t-9 21.5t-22 8.5zM316 123q-8 -26 -14 -48q-5 -19 -10.5 -37t-7.5 -25t-3 -15t1 -14.5
t9.5 -10.5t21.5 -4h37h67h81h80h64h36q23 0 34 12t2 38q-5 13 -9.5 30.5t-9.5 34.5q-5 19 -11 39h-368zM336 498v228q0 11 2.5 23t10 21.5t20.5 15.5t34 6h188q31 0 51.5 -14.5t20.5 -52.5v-227h-327z" />
    

    
    <glyph glyph-name="mulu" unicode="&#58956;" d="M959 628.96c-0.901-5.935-1.7-11.889-2.722-17.802-3.037-17.546-11.564-26.256-29.229-27.248-20.413-1.147-40.91-1.166-61.367-1.175-177.848-0.079-355.697-0.062-533.544-0.038-72.217 0.01-144.434 0.082-216.651 0.207-6.673 0.011-13.369 0.369-20.014 0.992-20.059 1.882-28.645 10.975-30.384 31.694-0.339 4.036-0.932 8.051-1.409 12.076 0 26.739 0 53.479 0 80.217 0.408 1.429 1.006 2.833 1.194 4.29 2.089 16.232 11.404 25.806 27.075 29.599 3.092 0.748 6.168 1.557 9.251 2.339 271.271 0 542.541 0 813.813 0 2.519-0.459 5.02-1.115 7.561-1.347 20.938-1.921 30.444-10.581 34.053-31.319 0.949-5.472 1.591-10.998 2.375-16.499C959 672.95 959 650.955 959 628.96zM959 265.398c-0.839-5.487-1.58-10.991-2.532-16.458-3.244-18.589-11.635-26.851-30.38-28.64-11.775-1.123-23.658-1.52-35.493-1.521-200.946-0.034-401.891 0.045-602.837 0.099-54.98 0.014-109.96-0.101-164.939 0.145-10.947 0.049-22.006 0.725-32.803 2.436-14.734 2.334-21.627 9.581-23.446 24.333-1.394 11.299-1.751 22.763-1.931 34.164-0.317 20.046-0.384 40.104-0.12 60.15 0.335 25.484 12.025 37.42 37.474 38.792 5.162 0.279 10.346 0.215 15.52 0.216 259.377 0.008 518.753 0.017 778.128-0.038 8.825-0.001 17.669-0.4 26.47-1.081 24.212-1.872 33.63-11.53 35.484-35.801 0.276-3.619 0.928-7.209 1.405-10.812C959 309.387 959 287.394 959 265.398zM63.679-28.299c0.844 5.718 1.501 11.471 2.568 17.146 2.747 14.63 10.064 21.775 24.841 23.97 5.947 0.882 12.006 1.423 18.014 1.424 267.72 0.063 535.438 0.057 803.157-0.008 5.364-0.001 10.765-0.528 16.082-1.271 18.302-2.55 27.276-13.042 29.247-33.723 0.322-3.39 0.934-6.751 1.411-10.127 0-22.856 0-45.714 0-68.572-0.484-3.585-1.075-7.159-1.438-10.758-2.074-20.55-11.225-30.474-30.508-33.067-2.735-0.368-5.441-0.966-8.163-1.457-271.7 0-543.401 0-815.104 0-2.951 0.48-5.888 1.104-8.857 1.421-18.357 1.952-26.175 9.112-28.765 27.302-1.268 8.908-1.684 17.936-2.486 26.91C63.679-68.838 63.679-48.568 63.679-28.299z"  horiz-adv-x="1024" />

    
    <glyph glyph-name="up" unicode="&#58988;" d="M522.9397162666667 687.4804906666667c2.5125489777777776-1.2131953777777775 4.8737393777777775-2.836222862222222 6.957827413333333-4.919146951111111l483.40366336-483.4048273066667c9.980337493333334-9.980337493333334 9.980337493333334-26.161709511111113 0-36.14204700444444l-76.80155875555555-76.80155875555555c-9.980337493333334-9.980337493333334-26.161709511111113-9.980337493333334-36.14204700444444 0l-18.374904035555556 18.374904035555556c0 0 0 0 0 0L706.0926418488889 280.4778700799999l-175.89005312 175.88888917333333c-10.147995875555555 10.147995875555555-26.60297728 10.147995875555555-36.750973155555556 0l-351.78010737777777-351.78010737777777-18.37606912-18.37606912c-9.980337493333334-9.980337493333334-26.162874595555554-9.980337493333334-36.14321095111111 0l-18.37606912 18.37606912-40.049421653333326 40.049421653333326-18.37723306666667 18.37723306666667c-9.980337493333334 9.980337493333334-9.97917240888889 26.161709511111113 0.0011639466666666667 36.14204700444444l18.374904035555556 18.374904035555556c0 0 0 0 0 0l388.2225425066667 388.2237064533333c0.0011639466666666667 0.0011639466666666667 0.0023290311111111113 0.0011639466666666667 0.0023290311111111113 0.0023290311111111113l76.80155875555555 76.80155875555555c0.6240620088888889 0.6240620088888889 1.2725748622222222 1.2085384533333332 1.9420444444444445 1.7545921422222222C503.49831736888893 690.678810168889 514.1749031822221 691.7173612088889 522.9397162666667 687.4804906666667z"  horiz-adv-x="1024" />

    
    <glyph glyph-name="suo" unicode="&#58940;" d="M127.2565457176637-124.1517320710102l769.4869085646726 0c27.90297457354208 0 50.81517320710103 22.458491729924116 50.81517320710103 50.13461285164878L947.5586274894374 406.68534518174147c0 27.676121121724666-22.685345181741532 49.90775939983137-50.81517320710103 49.90775939983137L847.7431086897745 456.5931045815729l0 70.0977166115813c0 94.14418250422735-36.750259194421275 198.72362379205575-96.63957047421894 261.78888339729724C691.4410803875757 851.544964195693 605.9173290524099 892.1517320710103 512.2268534518174 892.1517320710103c-0.2268534518174153 0-0.2268534518174153 0-0.2268534518174153 0 0 0-0.2268534518174153 0-0.2268534518174153 0-93.69047560059252 0-179.21422693575812-40.60676787531733-238.8766847637383-103.44517402874139-59.88931127979763-63.06525960524146-96.63957047421894-167.64470089306994-96.63957047421894-261.78888339729724L176.2568913102254 456.5931045815729 133.15473546491637 456.5931045815729l-5.898189747252798 0C99.12671769230411 456.5931045815729 76.44137251056259 434.1346128516488 76.44137251056259 406.68534518174147l0-480.70246440110304C76.44137251056259-101.69324034108615 99.12671769230411-124.1517320710102 127.2565457176637-124.1517320710102zM296.48922077345543 526.6908211931541c0 61.93099234615438 22.458491729924116 138.60745906044073 63.745819960693716 182.16332180938448l0 0 0 0.6805603554522459C400.16124825401425 751.7294453960301 455.2866370456462 776.4564716441286 511.7731465481826 776.4564716441286l0.2268534518174153 0 0.2268534518174153 0c56.4865095025364 0 111.61189829416833-24.72702624809827 151.53810581403343-66.92176828613752l0-0.4537069036348306-0.2268534518174153-0.2268534518174153c41.514181682587015-43.55586274894374 63.745819960693716-120.2323294632301 63.745819960693716-182.16332180938448L727.283925774727 456.5931045815729l-39.699354068047676 0-351.6228503169937 0L296.48922077345543 456.5931045815729 296.48922077345543 526.6908211931541z"  horiz-adv-x="1024" />

    
    <glyph glyph-name="muzhi" unicode="&#58978;" d="M24.9947022222222-66.88768000000005l202.7246933333333 0L227.7193955555556 502.83861333333334 24.9947022222222 502.83861333333334 24.9947022222222-66.88768000000005zM676.2769066666666 530.8006399999999l0 209.7152 0 0c0 0 0 0 0 1.1650844444444446l0 4.660337777777778 0 0c-3.4952533333333333 76.89557333333333-75.73048888888889 124.66403555555553-142.1403022222222 124.66403555555553-68.73998222222221 0-142.1403022222222-48.93354666666666-142.1403022222222-130.48945777777777l0-116.50844444444445-74.56540444444445-121.16878222222223-47.76846222222222 0 0 0 40.77795555555555 0 0-81.5559111111111 57.08913777777778 0 104.8576 180.58808888888888L472.38712888888887 740.51584c0 34.952533333333335 27.962026666666667 47.76846222222222 62.914559999999994 47.76846222222222 32.62236444444444 0 71.0701511111111-10.485759999999999 75.73048888888889-41.943039999999996l-1.1650844444444446 0-25.631857777777775-297.09653333333335 321.5633066666667-51.26371555555555L781.1345066666665-26.109724444444396 545.7874488888889-26.109724444444396 337.2373333333333 35.63975111111108l-27.962026666666667-8.15559111111111 0-93.20675555555555 19.806435555555556 0 206.21994666666666-39.61287111111111 330.88398222222213-1.1650844444444446 136.31488000000002 575.5517155555556L676.2769066666666 530.8006399999999z"  horiz-adv-x="1024" />

    
    <glyph glyph-name="anonymous-iconfont" unicode="&#58889;" d="M971.053176 438.241882 582.927059 438.241882 582.927059 826.368c0 30.750118-24.816941 55.446588-55.446588 55.446588-30.840471 0-55.446588-24.816941-55.446588-55.446588l0-388.126118L83.937882 438.241882c-30.750118 0-55.446588-24.816941-55.446588-55.446588 0-30.840471 24.816941-55.446588 55.446588-55.446588l388.096 0 0-388.126118c0-30.750118 24.816941-55.446588 55.446588-55.446588 30.840471 0 55.446588 24.816941 55.446588 55.446588L582.927059 327.378824l388.126118 0c30.750118 0 55.446588 24.816941 55.446588 55.446588C1026.469647 413.635765 1001.652706 438.241882 971.053176 438.241882z"  horiz-adv-x="1055" />

    
    <glyph glyph-name="mulu1" unicode="&#58962;" d="M182.68 210.656C181.672 212 183.56 209.344 182.68 210.656L182.68 210.656 182.68 210.656zM182.68 210.656 182.68 210.656zM512 733.752m-126.664 0a15.833 15.833 0 1 0 253.328 0 15.833 15.833 0 1 0-253.328 0ZM512 387.368m-126.664 0a15.833 15.833 0 1 0 253.328 0 15.833 15.833 0 1 0-253.328 0ZM512 40.984m-126.664 0a15.833 15.833 0 1 0 253.328 0 15.833 15.833 0 1 0-253.328 0Z"  horiz-adv-x="1024" />

    
    <glyph glyph-name="xinfeng" unicode="&#59018;" d="M907.748323 784.194588 144.405901 784.194588c-36.734646 0-66.514903-29.780257-66.514903-66.514903l0-585.331145c0-36.734646 29.780257-66.514903 66.514903-66.514903l763.341399 0c36.735669 0 66.514903 29.780257 66.514903 66.514903l0 585.331145C974.263226 754.415354 944.482969 784.194588 907.748323 784.194588zM887.61989 673.456485 545.18889 331.025485c-5.754051-5.754051-13.352099-8.53028-20.890796-8.347109-7.53972-0.184195-15.137769 2.593058-20.890796 8.347109L160.975275 673.456485c-11.150968 11.150968-11.150968 29.231765 0 40.382733s29.231765 11.150968 40.382733 0l322.940087-322.940087L847.237157 713.839217c11.150968 11.150968 29.231765 11.150968 40.382733 0S898.770857 684.607452 887.61989 673.456485z"  horiz-adv-x="1024" />

    
    <glyph glyph-name="cha-copy" unicode="&#58881;" d="M923.0451525165811 54.37238285374633l-328.6958527950514 328.64623718429243 328.63950964385054 328.61512230974876c22.694516738166154 22.696198623276626 22.694516738166154 59.574052498060816 0 82.15756481893574-22.696198623276626 22.696198623276626-59.46472996588005 22.696198623276626-82.15756481893574 0l-328.6470781268477-328.6218498501907-328.6689426332839 328.6210089076353c-22.696198623276626 22.696198623276626-59.46220713821434 22.696198623276626-82.15756481893574 0-22.696198623276626-22.696198623276626-22.696198623276626-59.46052525310385 0-82.15672387638052l328.6294183331877-328.65464660984486-328.6294183331877-328.6033491139754c-22.696198623276626-22.695357680721393-22.696198623276626-59.4630480807696 0-82.16008764660147 22.640696414631023-22.691993910500443 59.46220713821434-22.691993910500443 82.15756481893574 0l328.62773644807726 328.6025081714202 328.68996619716467-328.715194473822c22.694516738166154-22.580989493209234 59.519391231970424-22.580989493209234 82.21390797013659 0 22.636491701854837 22.696198623276626 22.636491701854837 59.57741626828175-0.0008409425552364529 82.2694101787822z"  horiz-adv-x="1024" />

    
    <glyph glyph-name="car2" unicode="&#59692;" d="M673.134399 109.63421200000005c0-49.406247 39.829124-89.442078 88.982614-89.442078 49.154513 0 88.983637 40.035832 88.983637 89.442078 0 49.405223-39.829124 89.442078-88.983637 89.442078C712.963523 199.07628999999997 673.134399 159.03943500000003 673.134399 109.63421200000005L673.134399 109.63421200000005zM134.415874 109.63421200000005c0-49.406247 39.828101-89.442078 88.983637-89.442078 49.154513 0 88.9908 40.035832 88.9908 89.442078 0 49.405223-39.836287 89.442078-88.9908 89.442078C174.244998 199.07628999999997 134.415874 159.03943500000003 134.415874 109.63421200000005L134.415874 109.63421200000005zM41.222355 439.149041l85.978187 115.273397c17.58654 21.302165 29.458939 38.673811 57.71754 38.673811l173.155688 0c21.197788 0 38.488593-17.371646 38.488593-38.673811l0-386.775974c0-21.22644-17.179264-38.488593-38.252209-38.636972-9.474792 66.623373-66.067718 118.183679-134.910643 118.183679-68.880787 0-125.473713-51.597145-134.903479-118.219495L50.237683 128.97367599999995c-21.190625 0-38.474266 17.371646-38.474266 38.672788L11.763416 361.032916C11.763416 397.678534 41.222355 439.149041 41.222355 439.149041L41.222355 439.149041zM281.118074 361.040079L281.118074 515.742487l-94.126774 0c-6.210445 0-14.810311-9.134031-14.810311-9.134031l-81.019245-112.705921c-7.17133-10.620895-14.951527-23.196305-14.951527-32.862455L281.118074 361.040079 281.118074 361.040079zM473.518059 747.807866l500.244258 0c21.189601 0 38.473243-17.371646 38.473243-38.673811l0-541.485545c0-21.301142-17.283642-38.672788-38.473243-38.672788l-76.741825 0c-9.429767 66.629513-66.023716 118.219495-134.903479 118.219495s-125.47269-51.589982-134.902456-118.219495L473.518059 128.97572200000002c-21.197788 0-38.48143 17.371646-38.48143 38.672788L435.036629 709.133032C435.035606 730.43622 452.326411 747.807866 473.518059 747.807866L473.518059 747.807866z"  horiz-adv-x="1024" />

    
    <glyph glyph-name="icon-arrow-right4" unicode="&#59003;" d="M511.2752264533334-125.01116814222223l-95.60026680888889 95.58396700444445 343.8617361066667 340.9370271288889L2.251250346666666 311.50982599111103 2.251250346666666 457.07814343111113l757.2842803200001 0L415.6737956977778 799.0746794666667l95.60026680888889 95.60143075555555 509.7912456533333-510.4281156266666L511.2752264533334-125.01116814222223z"  horiz-adv-x="1024" />

    
    <glyph glyph-name="sub" unicode="&#58947;" d="M903.053 325.25h-782.007c-32.391 0-58.649 26.256-58.649 58.647s26.256 58.661 58.649 58.661h782.009c32.406 0 58.649-26.27 58.649-58.661-0.001-32.393-26.245-58.647-58.649-58.647z"  horiz-adv-x="1024" />

    
    <glyph glyph-name="shijian" unicode="&#58979;" d="M512 832C256 832 51.2 624 51.2 371.2s208-460.8 460.8-460.8 460.8 208 460.8 460.8S768 832 512 832z m0-876.8C284.8-44.8 99.2 140.8 99.2 368S284.8 780.8 512 780.8 924.8 595.2 924.8 368 742.4-44.8 512-44.8zM809.6 352H531.2V633.6c0 12.8-9.6 22.4-22.4 22.4-12.8 0-22.4-9.6-22.4-22.4v-307.2c0-12.8 9.6-22.4 22.4-22.4h300.8c12.8 0 22.4 9.6 22.4 22.4 0 16-9.6 25.6-22.4 25.6z"  horiz-adv-x="1024" />

    
    <glyph glyph-name="dianhua" unicode="&#58886;" d="M948.842 113.26L752.533 228.928c-10.2 5.215-25.167 2.838-33.267-5.263l-57.762-57.755c-8.084-8.09-24.081-14.822-35.53-14.955 0 0-73.806-0.849-211.038 136.395-137.238 137.232-136.583 211.275-136.583 211.275 0.11 11.45 6.816 27.447 14.905 35.524l49.235 49.228c8.102 8.114 10.819 23.238 6.04 33.656L240.245 820.704c-4.778 10.406-15.318 12.298-23.407 4.22L82.547 690.955c-8.102-8.065-15.973-23.977-17.495-35.33 0 0-26.198-195.75 248.097-470.045 274.3-274.293 470.045-248.097 470.045-248.097 11.346 1.528 27.257 9.387 35.341 17.477l134.133 134.127c8.083 8.092 6.367 18.982-3.826 24.173z"  horiz-adv-x="1024" />

    
    <glyph glyph-name="sousuo" unicode="&#58928;" d="M716.665 682.2c-138.85 138.914-364.020 138.914-502.935 0s-138.915-364.085 0-502.936c64.35-64.369 153.259-104.184 251.468-104.184 98.208 0 187.117 39.815 251.467 104.183 64.37 64.351 104.185 153.26 104.185 251.468 0 98.208-39.815 187.117-104.183 251.467zM136.306 101.84c-84.207 84.186-136.291 200.499-136.291 328.977 0 256.913 208.27 465.183 465.183 465.183 256.913 0 465.183-208.27 465.183-465.183 0-128.478-52.085-244.791-136.291-328.976-84.178-84.157-200.457-136.207-328.892-136.207-128.436 0-244.714 52.050-328.892 136.207zM1005.246-109.316c-11.49-11.508-27.373-18.627-44.919-18.627s-33.429 7.119-44.918 18.626l-89.774 89.838c-11.488 11.488-18.593 27.358-18.593 44.887 0 35.059 28.421 63.479 63.479 63.479 17.529 0 33.399-7.105 44.887-18.592l89.837-89.774c11.539-11.476 18.68-27.363 18.68-44.918s-7.141-33.443-18.677-44.916z"  horiz-adv-x="1024" />

    
    <glyph glyph-name="kefu" unicode="&#58904;" d="M516.668 88.137c5.004 0 10.095 0.308 15.221 0.917 49.158 5.9 90.9 40.26 106.307 87.61 1.163 3.54-0.516 7.336-3.907 8.892-3.352 1.561-7.41 0.212-9.306-2.966-0.18-0.302-19.71-31.849-95.746-42.118-11.382-1.527-22.458-2.328-32.956-2.328-53.27 0.034-77.01 20.113-77.227 20.298-2.68 2.384-6.772 2.445-9.52 0.123-2.775-2.322-3.414-6.358-1.521-9.447 23.19-37.595 64.803-60.981 108.655-60.981z m0 0M925.504 559.366c-0.67 0-1.28-0.123-1.918-0.123C879.034 752.121 708.803 896 504.704 896 294.99 896 120.854 744.176 82.257 543.315c-37.528-6.753-66.092-39.738-66.092-79.628v-159.654c0-44.747 35.883-81.033 80.189-81.033 24.992 0 47.052 11.802 61.726 29.928 35.458-93.782 107.642-169.397 198.995-209.293 0.218 0.476 1.947 3.84 4.029 6.52 1.438 1.858 3.05 3.38 4.432 3.38 1.433 0 2.748-0.52 3.873-1.314-21.143 15.741-97.514 96.656-114.056 209.572-7.258 49.7 29.968 98.488 73.322 106.558 69.6 12.96 138.836 27.722 208.436 40.437 44.244 8.07 74.48 32.34 92.97 72.75 4.332 9.447 10.588 28.547 13.459 56.092 0.76 4.096 4.119 7.24 8.422 7.24 2.871 0 5.311-1.465 6.928-3.575l1.92 1.192c27.432-39.827 81.834-128.013 89.646-221 8.97-106.31 3.967-179.124-77.407-253.615a5.16 5.16 0 0 0-0.336-0.308 6.656 6.656 0 0 1-1.803-4.554c0-2.29 1.22-4.248 2.989-5.44 0.672-0.275 1.344-0.643 2.015-0.918 0.548-0.123 1.07-0.303 1.618-0.303 0.553 0 1.04 0.18 1.527 0.303 1.16 0.61 2.255 1.315 3.385 1.925 82.294 45.336 145.424 121.046 174.597 212.108 11.809-17.544 30.298-30.17 51.776-34.573-34.45-156.683-174.193-254.746-347.324-269.631-10.375 25.737-35.916 44.014-65.91 44.014-39.175 0-70.94-31.026-70.94-69.265 0-38.24 31.76-69.23 70.94-69.23 31.584 0 58.036 20.292 67.22 48.172 200.406 16.29 361.057 135.411 394.595 320.495 29.627 12.384 50.433 41.45 50.433 75.381V477.593c0 45.15-36.862 81.773-82.327 81.773z m-73.93-46.404c-52.269 141.59-187.714 242.736-347.05 242.736-158.669 0-293.627-100.29-346.382-240.963-2.625 3.212-5.704 5.96-8.725 8.742 29.866 171.423 177.4 301.76 355.287 301.76 177.036 0 324.11-129.055 354.955-299.287-3.048-4.096-5.858-8.37-8.085-12.988z m0 0M357.087 43.635h-0.012c-0.033-0.072-0.033-0.083 0.012 0z m0 0"  horiz-adv-x="1024" />

    
    <glyph glyph-name="cuowu" unicode="&#59313;" d="M478.97606449987404 883.5915679852187h68.24946670026034c5.436840581170739-0.7331313681027967 10.868177173091457-1.5091938523557569 16.311622541362222-2.190587721508356 12.162715444696394-1.5213026287058031 24.465232216343328-2.3050706979087927 36.47163436633912-4.625552565717644 28.67798558830939-5.542517174771143 56.98280070546736-12.576615436297976 84.42679190392205-22.86136974888721 33.579838414378095-12.584321021248005 65.55031037205006-28.273992777357854 95.82335204501554-47.51924158898127 26.116428991349625-16.602233173763334 50.50570615604266-35.4963274712354 72.85190251112789-56.76704432686655 15.668756596959769-14.914710069706894 30.395230234315942-30.96764511631813 44.2773919207189-47.57097908793147 17.521399378516833-20.955888670529937 32.64085784832451-43.692868262366666 46.32377512387671-67.44038028050726 14.943330813807002-25.93699894179894 27.270065138154024-52.99461009490215 37.18825376669186-81.13650713025949 13.234892550600485-37.55481945074326 22.257031729234903-76.1014577643403 25.418523154446962-115.90850961619215 0.40509360880154527-5.095593247669437 1.4134244394053916-10.143852187788694 2.1410518182581675-15.214127084908036v-68.24946670026034c-0.7331313681027967-5.436840581170739-1.5091938523557569-10.868177173091457-2.190587721508356-16.311622541362222-1.5213026287058031-12.162715444696394-2.3050706979087927-24.465232216343328-4.625552565717644-36.47163436633912-5.542517174771143-28.67798558830939-12.576615436297976-56.98280070546736-22.86136974888721-84.42679190392205-12.584321021248005-33.579838414378095-28.23986804400772-65.57122553120013-47.529148769631306-95.81674725791551-16.63525710926346-26.0834050558495-35.46330353573528-50.52882291089274-56.75383475266649-72.86070889392794-14.927919643906943-15.656647820609725-30.94562915931804-30.426052574116063-47.57978547073149-44.26638394221886-20.99111420173007-17.466359486016625-43.67195310321659-32.66727699672461-67.43267469555722-46.335883900226754-25.94580532459897-14.92681884605694-52.99571089275216-27.266762744604012-81.13870872595952-37.18495137314185-37.55481945074326-13.234892550600485-76.1014577643403-22.257031729234903-115.90850961619215-25.418523154446962-5.095593247669437-0.40509360880154527-10.143852187788694-1.4134244394053916-15.214127084908036-2.1410518182581675h-68.24946670026034c-5.436840581170739 0.7331313681027967-10.868177173091457 1.5091938523557569-16.311622541362222 2.190587721508356-12.162715444696394 1.5213026287058031-24.465232216343328 2.3050706979087927-36.47163436633912 4.625552565717644-28.67798558830939 5.542517174771143-56.98280070546736 12.576615436297976-84.42789270177207 22.86136974888721-33.579838414378095 12.584321021248005-65.55031037205006 28.27509357520786-95.82335204501554 47.52034238683127-26.116428991349625 16.602233173763334-50.50570615604266 35.4963274712354-72.85190251112789 56.76814512471655-15.668756596959769 14.914710069706894-30.39633103216595 30.96764511631813-44.2773919207189 47.57207988578148-17.51919778281683 20.95698946837994-32.643059444024516 43.69176746451667-46.32377512387671 67.44148107835726-14.941129218106996 25.93809973964894-27.26896434030402 52.99461009490215-37.18825376669186 81.1376079281095-13.237094146300494 37.55371865289325-22.307668430335095 76.08714739229025-25.417422356596955 115.90520722264212-0.39848882170152006 5.093391651969429-1.4123236415553873 10.141650592088686-2.1410518182581675 15.211925489208028v68.24946670026034c0.7331313681027967 5.436840581170739 1.5091938523557569 10.868177173091457 2.190587721508356 16.31052174351222 1.5213026287058031 12.162715444696394 2.3050706979087927 24.465232216343328 4.625552565717644 36.47163436633912 5.542517174771143 28.67798558830939 12.576615436297976 56.98280070546736 22.86136974888721 84.42679190392205 12.584321021248005 33.579838414378095 28.273992777357854 65.55031037205006 47.51924158898127 95.82335204501554 16.602233173763334 26.116428991349625 35.4963274712354 50.50570615604266 56.76704432686655 72.85190251112789 14.914710069706894 15.667655799109765 30.96874591416813 30.395230234315942 47.57097908793147 44.2773919207189 20.955888670529937 17.521399378516833 43.692868262366666 32.64085784832451 67.44038028050726 46.32377512387671 25.93699894179894 14.944431611657006 52.99350929705215 27.270065138154024 81.13650713025949 37.18825376669186C385.4082472495171 869.2668855631141 423.95488556311415 878.2879239438985 463.7619374149659 881.4505161669606c5.095593247669437 0.40399281095154105 10.143852187788694 1.4123236415553873 15.214127084908036 2.1410518182581675z m33.75376447467875-409.3889220122617c-1.6721119341563784 1.9924441085076006-2.848864835810867 3.629330511463844-4.255684488116233 5.037250961619215-28.77265420340976 28.814484521709915-57.5166876627194 57.65758978751994-86.38951447047954 86.37190170487946-13.430834567901234 13.357081111950952-29.517894347862597 18.801627278071717-48.38226710338456 15.286779743008315-25.861043890148647-4.819292987318383-42.923410565213736-19.923340287225997-51.16398327034516-44.66487276392038-7.2685682035777255-21.824418174183254-2.5758669690098257-41.21497230200722 13.735755572352396-57.568425161669595 28.628449685059206-28.698900747459476 57.320745645418654-57.33505601746871 85.97671527672797-86.00533602082805 1.3903076845553033-1.3914084824053077 2.6980555303602918-2.8642760057109258 4.997622239019064-5.317954413370286-1.8977754934072393-1.3627877383051983-3.7295031158142264-2.3380946334089185-5.1363227681195935-3.7405110943142685-28.83209728730998-28.753940639959684-57.66969856386998-57.50457888636935-86.38621207692952-86.37410330057948-13.360383505500964-13.431935365751238-18.792820895271685-29.509087965062562-15.297787721508353-48.381166305534556 4.796176232468295-25.89847101704879 19.888114756025864-42.95643450071387 44.67147755102041-51.17939444024523 21.832123759133278-7.244350650877634 41.21717389770723-2.5681613840597968 57.56952595951961 13.74456195515243 28.698900747459476 28.628449685059206 57.33505601746871 57.320745645418654 86.00533602082805 85.97671527672797 1.3903076845553033 1.3903076845553033 2.8642760057109258 2.696954732510288 5.312450424120264 4.991017451919038 1.366090131855211-1.8977754934072393 2.3435986226589396-3.728402317964222 3.7460150835642896-5.134121172419584 28.755041437809687-28.83209728730998 57.50457888636935-57.66969856386998 86.37520409842948-86.38621207692952 13.431935365751238-13.359282707650959 29.51349115646258-18.806030469471736 48.381166305534556-15.292283732258332 25.869850272948682 4.81819218946838 42.934418543713775 19.925541882926005 51.1738904509952 44.6725783488704 7.266366607877718 21.823317376333243 2.5692621819098007 41.21497230200722-13.743461157302423 57.56732436381959-28.62955048290921 28.69779994960947-57.320745645418654 57.3339552196187-85.97781607457796 86.00533602082805-1.3903076845553033 1.3903076845553033-2.6958539346602834 2.8642760057109258-4.984412664819012 5.305845637020241 1.8977754934072393 1.3682917275552196 3.72509992441421 2.3491026119089606 5.131919576719575 3.752619870664314 29.479366423112456 29.404512169312166 59.03358710002519 58.73527088267405 88.2927939531368 88.35884182413706 11.768629814394894 11.91503592844545 16.213651532711847 27.06971992945326 14.188183488704121 43.3075890148652-2.6683339884101787 21.394006214831606-13.939403174603173 38.010549760645-32.62544667842445 48.91065007138658-22.056686520534132 12.867226068699082-49.993835155790705 12.016309330645838-69.25669673301418-7.226737885277568-30.360004703115806-30.3302831611657-60.673775896531446-60.70900142773157-91.95845079365078-92.017893877551z"  horiz-adv-x="1024" />

    
    <glyph glyph-name="check-outline" unicode="&#58882;" d="M1010.671746031746 577.0971428571429L404.0736507936508-45.75492063492061a32.507936507936506 32.507936507936506 0 0 0-46.4863492063492 0L13.32825396825399 281.92507936507934a32.507936507936506 32.507936507936506 0 0 0 0 45.511111111111106L154.41269841269843 463.6444444444444a32.507936507936506 32.507936507936506 0 0 0 46.4863492063492 0L356.6120634920635 318.984126984127 800.6704761904762 781.5720634920635a32.507936507936506 32.507936507936506 0 0 0 46.811428571428564 0l162.53968253968253-158.96380952380952a32.507936507936506 32.507936507936506 0 0 0 0.6501587301587302-45.511111111111106z m-185.62031746031744 135.55809523809523L381.968253968254 249.41714285714284a32.507936507936506 32.507936507936506 0 0 0-46.4863492063492 0l-158.96380952380952 146.28571428571428-93.29777777777778-91.02222222222221 297.1225396825397-281.51873015873014L941.4298412698413 599.2025396825396z"  horiz-adv-x="1024" />

    
    <glyph glyph-name="yonghu" unicode="&#59033;" d="M512 337.454545c153.972364 0 279.272727 125.300364 279.272727 279.272728 0 154.065455-125.300364 279.272727-279.272727 279.272727S232.727273 770.792727 232.727273 616.727273s125.300364-279.272727 279.272727-279.272728zM618.402909 337.454545H405.410909C207.592727 337.454545 46.545455 182.458182 46.545455-7.912727v-20.666182C46.545455-128 204.893091-128 405.410909-128h212.992C811.008-128 977.454545-128 977.454545-28.578909V-7.912727C977.454545 182.458182 816.407273 337.454545 618.402909 337.454545z"  horiz-adv-x="1024" />

    
    <glyph glyph-name="gantanhao" unicode="&#58914;" d="M516.4957865976002 889.8679292075851C240.33905561292357 889.8679292075851 16.46815167577529 665.9982429517086 16.46815167577529 389.84029547490206c0-276.15916396893624 223.8709039371482-500.02763373268294 500.02763492182487-500.02763373268294S1016.5234203302836 113.68113150596605 1016.5234203302836 389.84029547490206c0 276.15794747680644-223.8709039371482 500.02763373268294-500.02763373268294 500.02763373268294z m11.696410104057987-212.84984674092368h0.10829990637635421c26.83286968829312 0 48.61335860034483-21.722079452696672 48.67176687055798-48.56833531098428l0.7313305720710903-335.85198684657684c0.05840945935503154-26.88154483232658-21.68557398652797-48.721658506721155-48.56833531098428-48.7800679660762h-0.10829990637635421c-26.83286968829312 0-48.61335860034483 21.723295944826397-48.67176687055798 48.56833531098428l-0.7313305720710903 335.85198684657684c-0.05840945935503154 26.882761324456315 21.68679047865771 48.721658506721155 48.56833531098428 48.7800679660762z m0.472139265075438-580.0918278690692c-28.226169376487103 0-51.10791067995762 22.882958984742118-51.10791067995762 51.10791067995762s22.88174249261239 51.10791067995762 51.10791067995762 51.107911869099475c28.224952884357368 0 51.10791067995762-22.882958984742118 51.107911869099475-51.107911869099475s-22.882958984742118-51.10791067995762-51.107911869099475-51.10791067995762z"  horiz-adv-x="1024" />

    
    <glyph glyph-name="guolv" unicode="&#59050;" d="M894.8458666666667 861.8666666666667H127.94560000000001c-39.300266666666666 0-58.4896-25.333333333333332-41.2224-44.6336C104.71573333333333 797.0741333333333 307.19999999999993 579.4037333333333 410.66666666666674 468.06613333333337V-93.86666666666667l204.8 136.53333333333333V471.2938666666667c106.66666666666667 114.14826666666666 307.74826666666667 331.0656 320.58986666666664 345.00586666666663C956.9226666666666 838.9333333333333 930.512 861.8666666666667 894.8458666666667 861.8666666666667z"  horiz-adv-x="1024" />

    
    <glyph glyph-name="fl-jia" unicode="&#58916;" d="M1008.2237775744507 402.9105037434998L864.7775343867445 530.8297624215629V721.8029380322769c0 9.156939582609967-12.448583168480662 16.496783016162443-27.825844399924158 16.496783016162443h-55.68911961939819c-15.41469205099337 0-27.86214095221495-7.3409777008115595-27.86214095221495-16.496783016162443v-91.59661824031778l-82.31944632824458 73.45855050025632-92.74676524103207 82.74706508492038c-5.770017546975957 6.045644490934116-11.663670225192405 11.315450176652677-17.683226569167527 15.806014255378413-6.923567349467515 5.182467106768853-14.055839874607054 9.240875359782411-21.30947899646891 12.17862756081794-8.945965872419775 3.627386694560471-18.097234118734303 5.614622932481029-27.41183685035738 5.614622932481029-9.316871266141247 0-18.42617162386956-1.986101970661471-27.36986896177115-5.614622932481029-7.254773389120942-2.9377522010355284-14.387045914260478-6.996160454049088-21.353715419573305-12.17862756081794-6.017287809456941-4.490564078725734-11.913209022191563-9.760369764444293-17.642392947840396-15.806014255378413l-92.74676524103207-82.74706508492038-174.07486198483454-155.29933604516617L15.632170483645496 402.9105037434998c-7.749313914082906-6.993891919530913-8.697561342679702-19.17365374760794-2.0609636097612176-27.292738788153233l44.27158538942767-54.501541799134024c6.636597732918483-8.117950773286205 18.301402225369976-9.156939582609967 26.009882518125746-2.1596448613017936l94.88939609344756 84.6446942093731 169.08635457936958 150.89497627813105 164.10011570842283 146.40327793214624 164.05701355257744-146.40327793214624 169.1271882006967-150.89497627813105 94.88939609344756-84.6446942093731c7.749313914082906-6.997294721308175 19.41525267379349-5.958305911984413 26.011016785384832 2.1596448613017936l44.270451122168595 54.501541799134024c6.638866267436658 8.119085040545295 5.689484571580777 20.29884686862232-2.0598293425021312 27.292738788153233zM514.0292041265068 646.2255762920457L349.9313569526021 499.8222983598996 180.8450023732325 348.92959061628676V-9.522682867670369c0-9.674165452753677 4.616467744484402-17.533503290968028 10.386485291460362-17.533503290968028h253.54843176002964V212.11313955794435h138.49970367082753v-239.16819144932361h253.54729749277053c5.731452460166997 0 10.387619558719443 7.859337838214354 10.387619558719443 17.533503290968028v358.4511392166978l-169.08522031211052 150.8927077436129-164.10011570842283 146.40327793214624z"  horiz-adv-x="1024" />

    
    <glyph glyph-name="cart" unicode="&#58880;" d="M346.2095238095238 101.05092063492066q19.764825396825394 0 37.44914285714285-7.281777777777777t30.68749206349206-20.28495238095238 20.805079365079365-30.68749206349206 7.801904761904761-37.44914285714285-7.801904761904761-37.44914285714285-20.805079365079365-30.68749206349206-30.68749206349206-20.805079365079365-37.44914285714285-7.801904761904761q-20.805079365079365 0-38.489396825396824 7.801904761904761t-30.68749206349206 20.805079365079365-20.805079365079365 30.68749206349206-7.801904761904761 37.44914285714285 7.801904761904761 37.44914285714285 20.805079365079365 30.68749206349206 30.68749206349206 20.28495238095238 38.489396825396824 7.281777777777777zM778.9551746031747 98.9704126984127q19.764825396825394 0 37.969269841269835-7.281777777777777t31.207619047619044-20.28495238095238 20.805079365079365-30.68749206349206 7.801904761904761-37.44914285714285-7.801904761904761-37.44914285714285-20.805079365079365-30.68749206349206-31.207619047619044-20.805079365079365-37.969269841269835-7.801904761904761-37.44914285714285 7.801904761904761-30.68749206349206 20.805079365079365-20.805079365079365 30.68749206349206-7.801904761904761 37.44914285714285 7.801904761904761 37.44914285714285 20.805079365079365 30.68749206349206 30.68749206349206 20.28495238095238 37.44914285714285 7.281777777777777zM953.7178412698414 689.8346666666666q29.12711111111111 0 45.25104761904761-7.801904761904761t22.8855873015873-19.244698412698412 6.24152380952381-24.445968253968253-3.6408888888888886-22.365460317460315-13.523301587301585-38.489396825396824-22.365460317460315-63.97561904761904-23.925841269841268-69.17688888888888-19.244698412698412-54.09320634920634q-13.523301587301585-41.61015873015873-33.808253968253965-57.734095238095236t-50.45231746031746-16.123936507936506l-36.40888888888889 0-66.57625396825397 0-87.38133333333333 0-97.78387301587301 0-257.9829841269841 0 14.563555555555554-93.62285714285713 525.328253968254 0q49.93219047619048 0 49.93219047619048-42.6504126984127 0-20.805079365079365-9.882412698412697-36.40888888888889t-39.009523809523806-14.563555555555554l-49.93219047619048 0-95.70336507936507 0-120.66946031746032 0-121.70971428571428 0-100.90463492063492 0-56.17371428571428 0q-20.805079365079365 0-34.848507936507936 9.362285714285713t-23.405714285714282 24.445968253968253-15.08368253968254 32.768-8.84215873015873 33.28812698412698q-1.0402539682539682 6.24152380952381-5.721396825396825 30.16736507936508t-11.44279365079365 59.81460317460317-15.08368253968254 80.09955555555555-16.64406349206349 88.94171428571428q-19.764825396825394 105.06565079365079-44.73092063492063 234.05714285714285l-78.01904761904761 0q-15.603809523809522 0-26.006349206349206 7.801904761904761t-17.164190476190477 18.724571428571426-9.362285714285713 23.405714285714282-2.6006349206349206 22.8855873015873q0 20.805079365079365 14.04342857142857 34.328380952380954t37.969269841269835 12.48304761904762l105.06565079365079 0q20.805079365079365 0 33.28812698412698-6.24152380952381t19.764825396825394-15.603809523809522 10.402539682539683-19.244698412698412 5.201269841269841-17.164190476190477q2.0805079365079364-8.322031746031746 4.161015873015873-23.405714285714282t4.161015873015873-30.68749206349206q3.120761904761905-18.724571428571426 6.24152380952381-39.52965079365079l711.5337142857143 0zM915.2284444444446 597.2520634920635l-651.1989841269841 2.0805079365079364 36.40888888888889-188.28596825396824 544.0528253968254-1.0402539682539682z"  horiz-adv-x="1028" />

    
    <glyph glyph-name="jiantou-copy-copy" unicode="&#59034;" d="M352 384l384.00000000000017 383.9999999999999c12.800000000000004 12.799999999999995 12.80000000000001 31.998999999999995 1.4210854715202004e-14 44.799s-31.998999999999995 12.80000000000001-44.799 1.4210854715202004e-14l-403.20000000000016-403.1999999999999c-6.400000000000002-6.399999999999998-12.800000000000004-19.198999999999995-12.800000000000008-25.599999999999994s-5.329070518200751e-15-19.198999999999998 6.3999999999999915-25.599000000000004l409.59999999999985-409.60000000000014c12.799999999999995-12.800000000000004 31.998999999999995-12.80000000000001 44.799-1.4210854715202004e-14s12.80000000000001 31.998999999999995 1.4210854715202004e-14 44.799l-383.9999999999999 390.39900000000017z"  horiz-adv-x="1024" />

    
    <glyph glyph-name="jiantou-copy-copy1" unicode="&#59035;" d="M672 384l-384.00000000000006-384c-12.799999999999999-12.8-12.799999999999997-31.998999999999995 3.552713678800501e-15-44.79899999999999s31.998999999999995-12.799999999999997 44.79899999999999 3.552713678800501e-15l403.2 403.20000000000005c6.3999999999999995 6.4 12.799999999999997 19.199 12.799999999999999 25.599999999999994s0 19.198999999999998-6.400000000000002 25.599000000000004l-409.6 409.59999999999997c-12.8 12.799999999999999-31.998999999999995 12.799999999999997-44.79899999999999-3.552713678800501e-15s-12.799999999999997-31.998999999999995 3.552713678800501e-15-44.79899999999999l384-390.39900000000006z"  horiz-adv-x="1024" />

    
    <glyph glyph-name="jiantou-copy-copy2" unicode="&#59036;" d="M512 544l383.99999999999994-384.0000000000001c12.799999999999997-12.800000000000002 31.998999999999995-12.800000000000004 44.799-7.105427357601002e-15s12.800000000000004 31.998999999999995 7.105427357601002e-15 44.799l-403.19999999999993 403.2000000000001c-6.399999999999999 6.400000000000001-19.198999999999998 12.800000000000002-25.599999999999998 12.800000000000004s-19.199 1.7763568394002505e-15-25.599000000000004-6.399999999999997l-409.6000000000001-409.5999999999999c-12.800000000000002-12.799999999999997-12.800000000000004-31.998999999999995-7.105427357601002e-15-44.799s31.998999999999995-12.800000000000004 44.799-7.105427357601002e-15l390.3990000000001 383.99999999999994z"  horiz-adv-x="1024" />

    
    <glyph glyph-name="jiantou-copy-copy3" unicode="&#59037;" d="M512 224l-384.00000000000006 384c-12.8 12.799999999999999-31.999000000000002 12.799999999999994-44.79899999999999-1.0658141036401503e-14s-12.799999999999994-31.999000000000002 1.0658141036401503e-14-44.79899999999999l403.20000000000005-403.2c6.4-6.3999999999999995 19.199-12.799999999999997 25.600000000000005-12.799999999999997s19.198999999999998 3.552713678800501e-15 25.599000000000004 6.4000000000000075l409.59999999999997 409.6c12.799999999999999 12.8 12.799999999999994 31.999000000000002-1.0658141036401503e-14 44.79899999999999s-31.999000000000002 12.799999999999994-44.79899999999999-1.0658141036401503e-14l-390.399-384.00000000000006z"  horiz-adv-x="1024" />

    
    <glyph glyph-name="mulu1-copy" unicode="&#59315;" d="M338.6559999999999 713.3199999999999C340 714.328 337.34400000000005 712.4399999999999 338.6559999999999 713.3199999999999L338.6559999999999 713.3199999999999 338.6559999999999 713.3199999999999zM338.6559999999999 713.3199999999999L338.6559999999999 713.3199999999999zM861.752 384.0000000000001m-2.1316282072803006e-14 126.66399999999999a15.832999999999998 15.832999999999998 0 1 1 4.263256414560601e-14-253.32799999999997 15.832999999999998 15.832999999999998 0 1 1-4.263256414560601e-14 253.32799999999997ZM515.368 384m-2.1316282072803006e-14 126.66399999999999a15.832999999999998 15.832999999999998 0 1 1 4.263256414560601e-14-253.32799999999997 15.832999999999998 15.832999999999998 0 1 1-4.263256414560601e-14 253.32799999999997ZM168.98400000000004 384m-2.1316282072803006e-14 126.66399999999999a15.832999999999998 15.832999999999998 0 1 1 4.263256414560601e-14-253.32799999999997 15.832999999999998 15.832999999999998 0 1 1-4.263256414560601e-14 253.32799999999997Z"  horiz-adv-x="1024" />

    
    <glyph glyph-name="icon-arrow-right4-copy" unicode="&#59316;" d="M512.7247735466665 893.0111681422222l95.60026680888892-95.58396700444442-343.86173610666657-340.937027128889L1021.7487496533333 456.4901740088892 1021.7487496533333 310.921856568889l-757.2842803200001-5.684341886080802e-14L608.3262043022222-31.07467946666668l-95.60026680888888-95.6014307555556-509.7912456533333 510.42811562666645L512.7247735466665 893.0111681422222z"  horiz-adv-x="1024" />

    
    <glyph glyph-name="up-copy" unicode="&#59693;" d="M208.98805293053414 396.14879531921315c1.211322325163546 2.508669852850817 2.8318440171129056 4.866214810465832 4.911552279036574 6.947085222038648l482.6584984860135 482.65733633636415c9.964928848052272 9.96492884805227 26.121318441964192 9.964928848052267 36.08624729001646-7.094457286719455e-15l76.68298481187001-76.68298481187003c9.96492884805227-9.964928848052272 9.964928848052267-26.121318441964192-7.094457286719455e-15-36.08624729001646l-18.346535017118406-18.3465350171184c0 0 0 0 0 0L615.3623020805367 579.0189510587951l-175.6173342781244-175.61849642777352c-10.132328382460802-10.1323283824608-10.132328382460807-26.561904937446307-7.094457286719455e-15-36.694233319907106l351.2369939915682-351.2369939915683 18.347698302788707-18.347698302788714c9.96492884805227-9.964928848052272 9.964928848052265-26.122481727634497-7.094457286719455e-15-36.0874094396656l-18.347698302788714-18.347698302788707-39.987589342313775-39.98758934231377-18.34886045243786-18.348860452437854c-9.964928848052272-9.96492884805227-26.121318441964192-9.963765562381958-36.08624729001646 0.001162149649154013l-18.3465350171184 18.346535017118406c0 0 0 0 0 0l-387.6243277863859 387.6231656367369c-0.0011621496491484994 0.0011621496491484996-0.0011621496491484994 0.002325435319459413-0.002325435319459412 0.0023254353194594127l-76.68298481187001 76.68298481187003c-0.6230985194142312 0.6230985194142316-1.2066725905457896 1.2706101336087186-1.751883227022661 1.9390461215936903C205.79467131450446 376.737412001528 204.75772369368673 387.39751423164364 208.98805293053414 396.14879531921315z"  horiz-adv-x="1024" />

    
    <glyph glyph-name="up-copy-copy" unicode="&#59694;" d="M815.0119470694658 377.1845380141201c-1.2113223251635468-2.508669852850816-2.831844017112907-4.866214810465831-4.9115522790365755-6.947085222038647l-482.65849848601357-482.657336336364c-9.964928848052274-9.964928848052265-26.121318441964196-9.964928848052258-36.08624729001646 2.1316282072803006e-14l-76.68298481186997 76.68298481187004c-9.964928848052265 9.964928848052274-9.964928848052258 26.121318441964196 2.1316282072803006e-14 36.08624729001646l18.346535017118406 18.34653501711839c0 0 0 0 0 0L408.6376979194633 194.31438227453827l175.61733427812442 175.61849642777344c10.132328382460805 10.132328382460797 10.132328382460816 26.561904937446307 2.1316282072803006e-14 36.6942333199071l-351.2369939915681 351.2369939915684-18.347698302788707 18.347698302788714c-9.964928848052265 9.964928848052274-9.964928848052258 26.122481727634497 1.4210854715202004e-14 36.08740943966559l18.347698302788714 18.347698302788707 39.98758934231379 39.987589342313754 18.34886045243786 18.348860452437854c9.964928848052274 9.964928848052265 26.121318441964192 9.963765562381951 36.08624729001646-0.001162149649168498l18.34653501711839-18.346535017118406c0 0 0 0 0 0l387.6243277863858-387.623165636737c0.001162149649148499-0.0011621496491485 0.0011621496491484983-0.0023254353194594136 0.0023254353194594114-0.0023254353194594136l76.68298481186997-76.68298481187004c0.623098519414231-0.6230985194142318 1.206672590545789-1.270610133608719 1.7518832270226605-1.9390461215936907C818.2053286854956 396.5959213318053 819.2422763063132 385.93581910168956 815.0119470694658 377.1845380141201z"  horiz-adv-x="1024" />

    


  </font>
</defs>
</svg>
